<?xml version="1.0" encoding="UTF-8" standalone="no"?>
<!DOCTYPE svg PUBLIC "-//W3C//DTD SVG 1.1//EN" "http://www.w3.org/Graphics/SVG/1.1/DTD/svg11.dtd">
<svg width="100%" height="100%" viewBox="0 0 86 86" version="1.1" xmlns="http://www.w3.org/2000/svg" xmlns:xlink="http://www.w3.org/1999/xlink" xml:space="preserve" xmlns:serif="http://www.serif.com/" style="fill-rule:evenodd;clip-rule:evenodd;stroke-linejoin:round;stroke-miterlimit:2;">
    <g id="Layer_1" transform="matrix(-1,-1.22465e-16,1.22465e-16,-1,86,86)">
        <path d="M85.699,1.723C85.699,0.937 85.062,0.3 84.276,0.3L43,0.3C19.417,0.3 0.3,19.417 0.3,43C0.3,66.582 19.417,85.7 43,85.7C66.583,85.7 85.7,66.582 85.7,43C85.7,42.364 85.699,1.723 85.699,1.723Z" style="fill:url(#_Linear1);fill-rule:nonzero;"/>
        <g>
            <circle cx="43" cy="43" r="32.025" style="fill:rgb(248,248,249);"/>
        </g>
        <g transform="matrix(-0.123712,1.51503e-17,-1.51503e-17,-0.123712,85.4182,62.467)">
            <g transform="matrix(0.88575,0,0,0.88575,123.802,-44.1701)">
                <path d="M368.872,99.211C368.872,45.78 333.215,11.268 289.684,10.882L104.032,10.882C78.36,10.654 57.364,31.611 57.136,57.283C56.78,89.82 89.231,112.245 119.777,101.358C152.375,91.743 179,128.281 159.731,156.277C137.346,188.799 111.277,229.175 102.796,252.273C91.254,283.701 96.837,321.869 118.471,343.503L311.63,248.211L418.903,82.218C402.786,79.947 385.053,84.523 368.872,99.211Z" style="fill:rgb(183,181,233);fill-rule:nonzero;"/>
                <path d="M493.737,229.988C470.412,206.245 432.255,205.906 408.512,229.232L453.34,185.193C493.17,142.83 461.768,88.257 418.904,82.218L161.873,339.248L171.011,338.352L241.23,410.86C283.107,453.487 351.61,454.096 394.238,412.219L492.981,315.214C516.723,291.887 517.062,253.732 493.737,229.988Z" style="fill:rgb(183,181,233);fill-rule:nonzero;"/>
            </g>
            <g transform="matrix(1.22093,0,0,1.22093,-2.21047,-108.94)">
                <g>
                    <g transform="matrix(6.62059,0,0,6.62059,-2.04158,-66.5759)">
                        <path d="M0.308,84.423C0.381,85.14 0.987,85.7 1.724,85.7L10.581,85.7L32.185,60.486L25.57,53.871L0.308,75.746L0.308,84.423Z" style="fill:rgb(255,108,108);fill-rule:nonzero;"/>
                    </g>
                    <g transform="matrix(6.62059,0,0,6.62059,-2.04158,-66.5759)">
                        <path d="M0.745,85.31C1,85.552 1.345,85.7 1.724,85.7L10.581,85.7L32.185,60.486L28.877,57.178L0.745,85.31Z" style="fill:rgb(255,65,91);fill-rule:nonzero;"/>
                    </g>
                </g>
                <g>
                    <path d="M234.56,257.818L207.465,211.764C192.628,215.854 179.972,221.421 172.075,232.459C152.094,260.39 155.929,298.141 179.552,321.568L211.978,308.081L234.56,257.818Z" style="fill:rgb(239,226,222);fill-rule:nonzero;"/>
                    <path d="M226.111,275.008L179.551,321.568C194.667,336.906 217.473,344.027 237.657,340.971L261.666,302.295L226.111,275.008Z" style="fill:rgb(239,226,222);fill-rule:nonzero;"/>
                </g>
                <g>
                    <path d="M294.145,180.455C268.267,201.803 234.298,204.366 207.465,211.764C209.231,230.318 214.425,255.069 226.111,275.008L273.896,244.706L303.511,197.609C301.283,191.09 298.202,185.265 294.145,180.455Z" style="fill:rgb(95,90,206);fill-rule:nonzero;"/>
                    <path d="M284.347,312.778C303.018,286.68 315.368,232.299 303.511,197.609L226.111,275.009C237.732,297.221 239.704,322.54 237.658,340.972C255.773,338.465 272.866,328.827 284.347,312.778Z" style="fill:rgb(95,90,206);fill-rule:nonzero;"/>
                </g>
            </g>
        </g>
    </g>
    <defs>
        <linearGradient id="_Linear1" x1="0" y1="0" x2="1" y2="0" gradientUnits="userSpaceOnUse" gradientTransform="matrix(72.4764,-72.4764,72.4764,72.4764,12.8065,73.1935)"><stop offset="0" style="stop-color:rgb(136,168,32);stop-opacity:1"/><stop offset="1" style="stop-color:rgb(194,219,107);stop-opacity:1"/><stop offset="1" style="stop-color:rgb(194,219,107);stop-opacity:1"/></linearGradient>
    </defs>
</svg>
